<?xml version="1.0" encoding="UTF-8"?>
<svg xmlns="http://www.w3.org/2000/svg" width="30" height="30" viewBox="0 0 30 30" fill="none">
  <mask id="mask0_3987_772" style="mask-type:alpha" maskUnits="userSpaceOnUse" x="0" y="0" width="30" height="30">
    <rect width="30" height="30" fill="#D9D9D9"></rect>
  </mask>
  <g mask="url(#mask0_3987_772)">
    <path d="M22.7408 12.1477L23.1143 11.9902L23.2334 11.4859L23.3578 10.9838L24.3988 10.5405C25.1047 10.2426 25.4498 10.11 25.4607 10.1355C25.4751 10.1683 25.825 13.4445 25.8303 13.5982C25.8312 13.6409 25.9245 13.6146 26.2757 13.4665L26.7194 13.2791L27.0427 11.2925L27.3678 9.30928L28.5541 8.78733C29.8363 8.22487 29.8569 8.21147 29.9537 7.92872C30.0209 7.74051 30.0165 7.60844 29.9362 7.42148C29.8367 7.19096 29.6151 7.02086 29.3665 6.99194C29.1771 6.9682 29.1771 6.96821 27.9939 7.46722L26.8145 7.96497L25.1121 6.80286L23.4136 5.63901L22.9773 5.82291C22.5781 5.99127 22.5441 6.01415 22.5863 6.06121C22.6134 6.09315 23.1309 6.69622 23.7373 7.4042C24.3438 8.11216 24.8472 8.71266 24.8569 8.73469C24.8726 8.7714 24.6444 8.88061 23.846 9.21734L22.8145 9.65249L22.3307 9.3809L21.8503 9.10812L21.4882 9.26096C21.1592 9.39996 21.1292 9.4211 21.171 9.46815C21.1981 9.50009 21.4337 9.79409 21.7003 10.1183L22.1806 10.7153L22.2722 11.4548C22.3211 11.8623 22.3621 12.2211 22.3656 12.2495C22.3665 12.2927 22.4524 12.2694 22.7408 12.1477Z" fill="#63AB45"></path>
    <path d="M21.6109 11.3924L20.8299 11.8112C17.9635 13.3739 15.843 14.846 14.8963 15.9511C14.7916 16.0763 14.7 16.1929 14.6214 16.3051C14.4687 16.0936 14.2724 15.9338 13.9975 15.9986C13.7881 16.0461 13.6397 16.1756 13.5176 16.3396C14.2811 15.1568 16.2837 13.5768 19.2462 11.8327C19.7959 11.5089 21.1746 10.7319 21.288 10.6844C21.3142 10.6844 21.3884 10.8183 21.4669 11.0298L21.6109 11.3924Z" fill="#63AB45"></path>
    <path d="M13.9976 0.00865398C13.2778 0.103627 12.6189 0.224502 11.9602 0.543956C11.4628 0.785702 10.9742 1.11379 10.5989 1.52391C10.2935 1.85631 10.0099 2.2103 9.80488 2.6161C9.47761 3.26364 9.35112 3.93708 9.35112 4.65369C9.35112 4.88249 9.33363 5.11129 9.37725 5.33577C9.4951 5.979 9.76126 6.592 10.023 7.18343C10.4113 8.0641 10.8694 8.9102 11.3319 9.75199C11.9165 10.814 12.5492 11.8501 13.1818 12.8861C13.3825 13.2142 13.6181 13.8401 14.1024 13.7926C14.5562 13.7452 14.6957 13.3351 14.9226 13.007C15.4724 12.2083 15.9828 11.3665 16.4846 10.5334C17.091 9.52321 17.6931 8.5087 18.1992 7.44678C18.4959 6.82512 18.8144 6.16463 18.9278 5.47823C18.9584 5.28829 18.9453 5.09402 18.954 4.89976C18.9889 4.12271 18.8187 3.34134 18.4479 2.65062C18.2254 2.24052 17.9461 1.87357 17.6189 1.53685C17.2175 1.12674 16.7332 0.79002 16.214 0.539639C15.6992 0.293573 15.1626 0.120895 14.5954 0.0388726C14.3991 0.0216048 14.194 -0.0172477 13.9976 0.00865398Z" fill="#63AB45"></path>
    <path d="M4.71095 4.81782C4.33574 4.8653 3.96925 4.86962 3.60276 4.97323C2.50765 5.27973 1.55216 5.92295 0.854087 6.81225C0.443964 7.33892 0.212727 7.99076 0.0992886 8.63831C-0.197394 10.3133 0.269445 12.1135 1.6176 13.2445C2.02336 13.5855 2.52946 13.9136 3.03557 14.0863C3.86018 14.3669 4.75895 14.4144 5.61845 14.4748C6.91426 14.5612 8.22314 14.5698 9.5233 14.5266C10.1865 14.505 10.8497 14.5137 11.5128 14.4748C11.7354 14.4619 11.9709 14.5007 12.1935 14.4575C12.5731 14.3799 12.8043 14.0043 12.6734 13.6373C12.5862 13.3913 12.4116 13.1582 12.2894 12.925C11.9884 12.3638 11.683 11.8026 11.3733 11.2458C10.6402 9.92909 9.8811 8.59513 8.98229 7.38208C8.4849 6.71296 7.9919 5.99203 7.25457 5.56033C6.62194 5.18908 5.98058 4.91711 5.24324 4.84804C5.06436 4.82645 4.88111 4.79192 4.71095 4.81782Z" fill="#63AB45"></path>
    <path d="M7.54158 15.2431C7.33213 15.269 7.10962 15.2474 6.9002 15.2517C6.59042 15.2561 6.28065 15.2733 5.97088 15.2863C5.42114 15.3122 4.87141 15.3597 4.32604 15.4374C3.88538 15.4978 3.43599 15.5539 3.01715 15.7094C2.53285 15.8863 2.07475 16.1842 1.67335 16.4993C1.36794 16.7368 1.1018 17.0304 0.874927 17.3455C0.0983144 18.4377 -0.159101 19.8407 0.093951 21.1444C0.189937 21.6409 0.333915 22.1589 0.586968 22.6036C0.774579 22.9273 1.04508 23.2209 1.31122 23.4842C2.34524 24.516 3.84175 25.1203 5.31643 24.9433C6.11486 24.8483 6.94818 24.5117 7.57642 24.0152C8.27891 23.4626 8.80682 22.6639 9.29982 21.9301C10.0677 20.7861 10.7789 19.6032 11.4421 18.3988C11.778 17.7858 12.1096 17.1685 12.4499 16.5555C12.62 16.2447 12.8208 15.9425 12.5982 15.6014C12.3452 15.2086 11.6995 15.3079 11.2894 15.3079C10.7221 15.3079 10.155 15.2561 9.58778 15.2517C9.33913 15.2474 9.08608 15.2604 8.83735 15.2474C8.54938 15.2345 8.2571 15.2345 7.96913 15.2388C7.82954 15.2431 7.68556 15.2258 7.54158 15.2431Z" fill="#63AB45"></path>
    <path d="M27.9302 21.9648C27.0357 24.4039 23.829 25.7205 21.4861 24.5032C20.9058 24.201 20.4128 23.8556 19.9939 23.3463C19.8936 23.2253 19.6623 23.0311 19.6405 22.8714C19.5489 22.8282 19.4922 22.716 19.4355 22.6383C19.2915 22.444 19.1475 22.2497 19.0166 22.0468C18.5498 21.3388 18.1004 20.6265 17.6641 19.9056C17.4809 19.6035 17.302 19.297 17.1275 18.9948C17.014 18.8048 16.9049 18.6149 16.8002 18.4293C16.5123 17.9198 16.233 17.4061 15.9713 16.888C15.7924 16.5341 15.4128 16.111 15.5917 15.6966C15.7967 15.2131 16.3203 15.3555 16.7348 15.3167C17.2846 15.2649 17.843 15.2865 18.3927 15.2736C19.0166 15.2563 19.6449 15.2304 20.2732 15.2433C21.3901 15.2692 22.507 15.2692 23.6195 15.3987C24.1606 15.4635 24.7103 15.5282 25.2252 15.7052C25.5175 15.8088 25.7879 15.9685 26.0498 16.1326C26.4773 16.3959 26.8656 16.7111 27.1841 17.1039C27.52 17.5097 27.7731 17.9716 27.9477 18.4637L28.0654 18.8436L28.0785 18.8825L28.0829 18.8998C28.3403 19.9056 28.288 20.9935 27.9302 21.9648Z" fill="#63AB45"></path>
    <path d="M18.9509 24.8742C18.9684 25.5648 18.8549 26.2124 18.5844 26.8556C18.423 27.2355 18.183 27.5809 17.9256 27.9046C17.5984 28.3105 17.1926 28.6601 16.7476 28.9407C16.1935 29.2903 15.5914 29.5365 14.95 29.6832C13.0608 30.1149 10.9143 29.04 9.94572 27.4211C9.44834 26.588 9.26512 25.5864 9.35669 24.628C9.42213 23.9287 9.74501 23.238 10.0243 22.6034C10.5435 21.4379 11.1499 20.3068 11.8 19.2146C12.2668 18.4289 12.7293 17.6433 13.2005 16.8618C13.2965 16.7022 13.3837 16.5294 13.4972 16.3741C13.5016 16.3611 13.5103 16.3525 13.519 16.3395C13.6412 16.1755 13.7895 16.046 13.9989 15.9985C14.2738 15.9337 14.4701 16.0935 14.6228 16.305C14.745 16.4647 14.841 16.6547 14.9326 16.7928C15.2685 17.2893 15.587 17.7986 15.9012 18.3124C16.0321 18.5196 16.1586 18.7268 16.2851 18.9383C16.4553 19.2146 16.6211 19.4909 16.7912 19.7629C17.3366 20.6478 17.8427 21.576 18.2834 22.5171C18.5495 23.0869 18.8244 23.6869 18.9247 24.3086C18.9553 24.4986 18.9466 24.6842 18.9509 24.8742Z" fill="#63AB45"></path>
  </g>
</svg>
